<svg width="97" height="115" viewBox="0 0 97 115" fill="none" xmlns="http://www.w3.org/2000/svg">
<path d="M74.5456 47.3947H78.3372V51.1862H74.5456V47.3947Z" fill="#2C3344"/>
<path d="M42.3172 94.7893H46.1088V98.5809H42.3172V94.7893Z" fill="#2C3344"/>
<path d="M49.9004 94.7893H53.692V98.5809H49.9004V94.7893Z" fill="#2C3344"/>
<path d="M57.4835 87.2062H61.2751V90.9977H57.4835V87.2062Z" fill="#2C3344"/>
<path d="M49.9004 87.2062H53.692V90.9977H49.9004V87.2062Z" fill="#2C3344"/>
<path d="M34.7341 87.2062H38.5257V90.9977H34.7341V87.2062Z" fill="#2C3344"/>
<path d="M42.3172 87.2062H46.1088V90.9977H42.3172V87.2062Z" fill="#2C3344"/>
<path d="M89.7119 92.8935C88.7341 92.8907 87.7729 93.1457 86.9251 93.6328C86.2338 92.5771 85.2146 91.7777 84.0245 91.3579V85.3104C84.02 83.8034 83.4194 82.3594 82.3538 81.2938C81.2881 80.2281 79.8442 79.6275 78.3372 79.623H74.5456V77.7272C74.5456 77.2244 74.7453 76.7422 75.1009 76.3867C75.4564 76.0312 75.9386 75.8314 76.4414 75.8314H84.0245C85.5329 75.8314 86.9795 75.2322 88.0461 74.1656C89.1127 73.099 89.7119 71.6524 89.7119 70.1441C89.7119 68.6357 89.1127 67.1891 88.0461 66.1225C86.9795 65.0559 85.5329 64.4567 84.0245 64.4567H76.4414C75.9386 64.4567 75.4564 64.257 75.1009 63.9014C74.7453 63.5459 74.5456 63.0637 74.5456 62.5609V56.8736H84.0245C85.5315 56.8691 86.9755 56.2684 88.0411 55.2028C89.1067 54.1372 89.7074 52.6932 89.7119 51.1862V5.68736C89.7074 4.18036 89.1067 2.73637 88.0411 1.67076C86.9755 0.605148 85.5315 0.00450077 84.0245 0H11.9847C10.4777 0.00450077 9.03368 0.605148 7.96807 1.67076C6.90246 2.73637 6.30181 4.18036 6.29731 5.68736V51.1862C6.30181 52.6932 6.90246 54.1372 7.96807 55.2028C9.03368 56.2684 10.4777 56.8691 11.9847 56.8736H36.2886L35.0185 64.4567H34.7341C33.2257 64.4567 31.7791 65.0559 30.7125 66.1225C29.6459 67.1891 29.0467 68.6357 29.0467 70.1441C29.0467 71.6524 29.6459 73.099 30.7125 74.1656C31.7791 75.2322 33.2257 75.8314 34.7341 75.8314H61.2751C62.7835 75.8314 64.2301 75.2322 65.2967 74.1656C66.3632 73.099 66.9624 71.6524 66.9624 70.1441C66.9624 68.6357 66.3632 67.1891 65.2967 66.1225C64.2301 65.0559 62.7835 64.4567 61.2751 64.4567H60.9907L59.7205 56.8736H70.754V62.5609C70.7585 64.0679 71.3592 65.5119 72.4248 66.5775C73.4904 67.6431 74.9344 68.2438 76.4414 68.2483H84.0245C84.5273 68.2483 85.0095 68.448 85.365 68.8035C85.7206 69.1591 85.9203 69.6413 85.9203 70.1441C85.9203 70.6469 85.7206 71.1291 85.365 71.4846C85.0095 71.8401 84.5273 72.0399 84.0245 72.0399H76.4414C74.9344 72.0444 73.4904 72.645 72.4248 73.7106C71.3592 74.7762 70.7585 76.2202 70.754 77.7272V79.623H17.672C16.165 79.6275 14.721 80.2281 13.6554 81.2938C12.5898 82.3594 11.9892 83.8034 11.9847 85.3104V91.3579C10.7946 91.7777 9.77542 92.5771 9.08412 93.6328C8.23631 93.1457 7.27508 92.8907 6.29731 92.8935C4.79032 92.898 3.34633 93.4986 2.28072 94.5643C1.2151 95.6299 0.614456 97.0739 0.609955 98.5808V113.747H4.40153V98.5808C4.40153 98.0781 4.60126 97.5959 4.95679 97.2403C5.31232 96.8848 5.79452 96.6851 6.29731 96.6851C6.80011 96.6851 7.28231 96.8848 7.63783 97.2403C7.99336 97.5959 8.1931 98.0781 8.1931 98.5808V104.268C8.1931 104.771 8.39283 105.253 8.74836 105.609C9.10389 105.964 9.58609 106.164 10.0889 106.164C10.5917 106.164 11.0739 105.964 11.4294 105.609C11.7849 105.253 11.9847 104.771 11.9847 104.268V96.6851C11.9847 96.1823 12.1844 95.7001 12.5399 95.3445C12.8955 94.989 13.3777 94.7893 13.8805 94.7893C14.3832 94.7893 14.8654 94.989 15.221 95.3445C15.5765 95.7001 15.7762 96.1823 15.7762 96.6851V104.268C15.7762 104.771 15.976 105.253 16.3315 105.609C16.687 105.964 17.1692 106.164 17.672 106.164C18.1748 106.164 18.657 105.964 19.0125 105.609C19.3681 105.253 19.5678 104.771 19.5678 104.268V94.7893C19.5678 94.2865 19.7675 93.8043 20.1231 93.4488C20.4786 93.0932 20.9608 92.8935 21.4636 92.8935C21.9664 92.8935 22.4486 93.0932 22.8041 93.4488C23.1596 93.8043 23.3594 94.2865 23.3594 94.7893V104.268C23.3594 104.771 23.5591 105.253 23.9146 105.609C24.2702 105.964 24.7524 106.164 25.2552 106.164C25.758 106.164 26.2402 105.964 26.5957 105.609C26.9512 105.253 27.151 104.771 27.151 104.268V94.7893C27.151 94.2865 27.3507 93.8043 27.7062 93.4488C28.0617 93.0932 28.5439 92.8935 29.0467 92.8935C29.5495 92.8935 30.0317 93.0932 30.3873 93.4488C30.7428 93.8043 30.9425 94.2865 30.9425 94.7893V109.956C30.9407 110.374 31.0773 110.781 31.331 111.114C31.5848 111.446 31.9414 111.686 32.3454 111.794C32.7508 111.897 33.1785 111.866 33.5646 111.705C33.9508 111.544 34.2745 111.263 34.4876 110.903L38.2792 104.344C38.3989 104.126 38.5614 103.935 38.7569 103.782C38.9524 103.629 39.1768 103.517 39.4167 103.453C39.7806 103.352 40.1663 103.362 40.5246 103.481C40.8828 103.601 41.1972 103.825 41.4273 104.124C41.6575 104.424 41.793 104.785 41.8164 105.162C41.8399 105.539 41.7502 105.914 41.5589 106.24L37.7674 112.799L41.0471 114.695L43.777 109.956H52.2322L54.9621 114.695L58.2418 112.799L54.4503 106.24C54.2022 105.802 54.1367 105.283 54.268 104.797C54.3993 104.311 54.7168 103.896 55.1517 103.643C55.3666 103.518 55.6042 103.437 55.8507 103.404C56.0972 103.372 56.3476 103.389 56.5875 103.454C56.8274 103.52 57.0519 103.632 57.248 103.785C57.4441 103.937 57.608 104.127 57.73 104.344L61.5215 110.903C61.7346 111.263 62.0584 111.544 62.4445 111.705C62.8307 111.866 63.2584 111.897 63.6638 111.794C64.0678 111.686 64.4244 111.446 64.6781 111.114C64.9319 110.781 65.0685 110.374 65.0667 109.956V94.7893C65.0667 94.2865 65.2664 93.8043 65.6219 93.4488C65.9775 93.0932 66.4597 92.8935 66.9624 92.8935C67.4652 92.8935 67.9474 93.0932 68.303 93.4488C68.6585 93.8043 68.8582 94.2865 68.8582 94.7893V104.268C68.8582 104.771 69.058 105.253 69.4135 105.609C69.769 105.964 70.2512 106.164 70.754 106.164C71.2568 106.164 71.739 105.964 72.0945 105.609C72.4501 105.253 72.6498 104.771 72.6498 104.268V94.7893C72.6498 94.2865 72.8495 93.8043 73.2051 93.4488C73.5606 93.0932 74.0428 92.8935 74.5456 92.8935C75.0484 92.8935 75.5306 93.0932 75.8861 93.4488C76.2416 93.8043 76.4414 94.2865 76.4414 94.7893V104.268C76.4414 104.771 76.6411 105.253 76.9966 105.609C77.3522 105.964 77.8344 106.164 78.3372 106.164C78.84 106.164 79.3222 105.964 79.6777 105.609C80.0332 105.253 80.2329 104.771 80.2329 104.268V96.6851C80.2329 96.1823 80.4327 95.7001 80.7882 95.3445C81.1437 94.989 81.6259 94.7893 82.1287 94.7893C82.6315 94.7893 83.1137 94.989 83.4693 95.3445C83.8248 95.7001 84.0245 96.1823 84.0245 96.6851V104.268C84.0245 104.771 84.2243 105.253 84.5798 105.609C84.9353 105.964 85.4175 106.164 85.9203 106.164C86.4231 106.164 86.9053 105.964 87.2608 105.609C87.6164 105.253 87.8161 104.771 87.8161 104.268V98.5808C87.8161 98.0781 88.0158 97.5959 88.3714 97.2403C88.7269 96.8848 89.2091 96.6851 89.7119 96.6851C90.2147 96.6851 90.6969 96.8848 91.0524 97.2403C91.4079 97.5959 91.6077 98.0781 91.6077 98.5808V113.747H95.3992V98.5808C95.3947 97.0739 94.7941 95.6299 93.7285 94.5643C92.6629 93.4986 91.2189 92.898 89.7119 92.8935V92.8935ZM10.0889 5.68736C10.0889 5.18456 10.2886 4.70236 10.6441 4.34683C10.9997 3.99131 11.4819 3.79157 11.9847 3.79157H84.0245C84.5273 3.79157 85.0095 3.99131 85.365 4.34683C85.7206 4.70236 85.9203 5.18456 85.9203 5.68736V41.7073H10.0889V5.68736ZM61.2751 68.2483C61.7779 68.2483 62.2601 68.448 62.6156 68.8035C62.9711 69.1591 63.1709 69.6413 63.1709 70.1441C63.1709 70.6469 62.9711 71.1291 62.6156 71.4846C62.2601 71.8401 61.7779 72.0399 61.2751 72.0399H34.7341C34.2313 72.0399 33.7491 71.8401 33.3936 71.4846C33.038 71.1291 32.8383 70.6469 32.8383 70.1441C32.8383 69.6413 33.038 69.1591 33.3936 68.8035C33.7491 68.448 34.2313 68.2483 34.7341 68.2483H61.2751ZM38.8669 64.4567L40.1371 56.8736H55.8721L57.1423 64.4567H38.8669ZM11.9847 53.082C11.4819 53.082 10.9997 52.8823 10.6441 52.5267C10.2886 52.1712 10.0889 51.689 10.0889 51.1862V45.4989H85.9203V51.1862C85.9203 51.689 85.7206 52.1712 85.365 52.5267C85.0095 52.8823 84.5273 53.082 84.0245 53.082H11.9847ZM80.2329 91.3579C79.9249 91.4565 79.6266 91.5835 79.3419 91.7371C78.6506 90.6813 77.6315 89.8819 76.4414 89.4621V87.2061H72.6498V89.4432C71.9505 89.6878 71.3063 90.0679 70.754 90.5617C70.2017 90.0679 69.5575 89.6878 68.8582 89.4432V87.2061H65.0667V89.4432C63.9619 89.8367 63.0052 90.561 62.3268 91.5176C61.6484 92.4742 61.2811 93.6166 61.2751 94.7893V102.884L61.0286 102.448C60.3635 101.302 59.3192 100.425 58.076 99.9668C56.8327 99.5088 55.4686 99.4992 54.2191 99.9397C52.9696 100.38 51.913 101.243 51.2319 102.379C50.5507 103.516 50.2876 104.854 50.4881 106.164H45.5211C45.6539 105.381 45.6151 104.579 45.4074 103.813C45.1168 102.725 44.5096 101.747 43.6628 101.005C42.8159 100.262 41.7676 99.7874 40.6508 99.6412C39.5339 99.495 38.3988 99.6838 37.3893 100.183C36.3798 100.683 35.5415 101.471 34.9805 102.448L34.7341 102.884V94.7893C34.7281 93.6166 34.3608 92.4742 33.6824 91.5176C33.004 90.561 32.0473 89.8367 30.9425 89.4432V87.2061H27.151V89.4432C26.4517 89.6878 25.8074 90.0679 25.2552 90.5617C24.7029 90.0679 24.0587 89.6878 23.3594 89.4432V87.2061H19.5678V89.4621C18.3777 89.8819 17.3586 90.6813 16.6673 91.7371C16.3826 91.5835 16.0843 91.4565 15.7762 91.3579V85.3104C15.7762 84.8076 15.976 84.3254 16.3315 83.9698C16.687 83.6143 17.1692 83.4146 17.672 83.4146H78.3372C78.84 83.4146 79.3222 83.6143 79.6777 83.9698C80.0332 84.3254 80.2329 84.8076 80.2329 85.3104V91.3579Z" fill="#2C3344"/>
<path d="M27.7064 25.9855L30.387 23.3049L26.04 18.9579L30.387 14.6108L27.7064 11.9302L22.019 17.6175C21.6636 17.973 21.464 18.4552 21.464 18.9579C21.464 19.4605 21.6636 19.9427 22.019 20.2982L27.7064 25.9855Z" fill="#2C3344"/>
<path d="M45.5534 25.9855L51.2407 20.2982C51.5961 19.9427 51.7958 19.4605 51.7958 18.9579C51.7958 18.4552 51.5961 17.973 51.2407 17.6175L45.5534 11.9302L42.8727 14.6108L47.2198 18.9579L42.8727 23.3049L45.5534 25.9855Z" fill="#2C3344"/>
<path d="M32.9068 26.0923L36.7055 10.9286L40.3833 11.85L36.5846 27.0136L32.9068 26.0923Z" fill="#2C3344"/>
<path d="M55.5877 22.7494H74.5456V26.541H55.5877V22.7494Z" fill="#2C3344"/>
<path d="M55.5877 15.1663H59.3793V18.9578H55.5877V15.1663Z" fill="#2C3344"/>
<path d="M63.1709 15.1663H74.5456V18.9578H63.1709V15.1663Z" fill="#2C3344"/>
<path d="M51.7962 30.3325H74.5456V34.1241H51.7962V30.3325Z" fill="#2C3344"/>
<path d="M36.6299 30.3325H48.0046V34.1241H36.6299V30.3325Z" fill="#2C3344"/>
<path d="M29.0468 30.3325H32.8383V34.1241H29.0468V30.3325Z" fill="#2C3344"/>
</svg>
