<svg width="36" height="36" viewBox="0 0 36 36" fill="none" xmlns="http://www.w3.org/2000/svg">
<g clip-path="url(#clip0)">
<path d="M18 0.75C8.055 0.75 0 8.67 0 18.438C0 26.2545 5.157 32.883 12.3075 35.22C13.2075 35.3865 13.5375 34.839 13.5375 34.3695C13.5375 33.9495 13.5225 32.8365 13.515 31.362C8.508 32.4285 7.452 28.989 7.452 28.989C6.633 26.9475 5.4495 26.4015 5.4495 26.4015C3.819 25.305 5.5755 25.3275 5.5755 25.3275C7.383 25.4505 8.3325 27.15 8.3325 27.15C9.9375 29.8545 12.546 29.073 13.575 28.6215C13.737 27.477 14.2005 26.6985 14.715 26.256C10.7175 25.8135 6.516 24.2925 6.516 17.5155C6.516 15.585 7.2135 14.007 8.3685 12.7695C8.166 12.3225 7.5585 10.524 8.526 8.088C8.526 8.088 10.0335 7.614 13.476 9.9015C14.916 9.5085 16.446 9.3135 17.976 9.3045C19.506 9.3135 21.036 9.5085 22.476 9.9015C25.896 7.614 27.4035 8.088 27.4035 8.088C28.371 10.524 27.7635 12.3225 27.5835 12.7695C28.731 14.007 29.4285 15.585 29.4285 17.5155C29.4285 24.3105 25.221 25.806 21.216 26.241C21.846 26.772 22.431 27.8565 22.431 29.514C22.431 31.881 22.4085 33.783 22.4085 34.3575C22.4085 34.821 22.7235 35.3745 23.646 35.1975C30.8475 32.8755 36 26.2425 36 18.438C36 8.67 27.9405 0.75 18 0.75V0.75Z" fill="#2C3344"/>
</g>
<defs>
<clipPath id="clip0">
<rect width="36" height="36" fill="white"/>
</clipPath>
</defs>
</svg>
