<svg width="36" height="36" viewBox="0 0 36 36" fill="none" xmlns="http://www.w3.org/2000/svg">
<path d="M21.4453 18C21.4453 19.9028 19.9028 21.4453 18 21.4453C16.0972 21.4453 14.5547 19.9028 14.5547 18C14.5547 16.0972 16.0972 14.5547 18 14.5547C19.9028 14.5547 21.4453 16.0972 21.4453 18Z" fill="#F4F4ED"/>
<path d="M26.0574 11.9043C25.8918 11.4555 25.6275 11.0493 25.2842 10.7159C24.9508 10.3726 24.5448 10.1083 24.0958 9.94272C23.7316 9.80127 23.1844 9.6329 22.1767 9.58704C21.0866 9.53732 20.7598 9.52661 18 9.52661C15.24 9.52661 14.9131 9.53705 13.8233 9.58676C12.8156 9.6329 12.2682 9.80127 11.9042 9.94272C11.4552 10.1083 11.049 10.3726 10.7158 10.7159C10.3725 11.0493 10.1082 11.4553 9.94235 11.9043C9.8009 12.2685 9.63254 12.8159 9.58667 13.8236C9.53696 14.9135 9.52625 15.2403 9.52625 18.0004C9.52625 20.7601 9.53696 21.087 9.58667 22.1771C9.63254 23.1848 9.8009 23.7319 9.94235 24.0961C10.1082 24.5452 10.3722 24.9511 10.7155 25.2846C11.049 25.6279 11.4549 25.8921 11.904 26.0577C12.2682 26.1995 12.8156 26.3678 13.8233 26.4137C14.9131 26.4634 15.2397 26.4738 17.9997 26.4738C20.76 26.4738 21.0869 26.4634 22.1765 26.4137C23.1842 26.3678 23.7316 26.1995 24.0958 26.0577C24.9972 25.71 25.7097 24.9976 26.0574 24.0961C26.1988 23.7319 26.3672 23.1848 26.4133 22.1771C26.463 21.087 26.4735 20.7601 26.4735 18.0004C26.4735 15.2403 26.463 14.9135 26.4133 13.8236C26.3675 12.8159 26.1991 12.2685 26.0574 11.9043ZM18 23.3076C15.0686 23.3076 12.6922 20.9315 12.6922 18.0001C12.6922 15.0687 15.0686 12.6926 18 12.6926C20.9312 12.6926 23.3075 15.0687 23.3075 18.0001C23.3075 20.9315 20.9312 23.3076 18 23.3076ZM23.5173 13.7231C22.8323 13.7231 22.277 13.1678 22.277 12.4828C22.277 11.7978 22.8323 11.2424 23.5173 11.2424C24.2023 11.2424 24.7577 11.7978 24.7577 12.4828C24.7574 13.1678 24.2023 13.7231 23.5173 13.7231Z" fill="#F4F4ED"/>
<path d="M18 0C8.06039 0 0 8.06039 0 18C0 27.9396 8.06039 36 18 36C27.9396 36 36 27.9396 36 18C36 8.06039 27.9396 0 18 0ZM28.2736 22.2613C28.2236 23.3616 28.0486 24.1128 27.7932 24.7703C27.2563 26.1587 26.1587 27.2563 24.7703 27.7932C24.1131 28.0486 23.3616 28.2233 22.2616 28.2736C21.1594 28.3239 20.8073 28.3359 18.0003 28.3359C15.193 28.3359 14.8412 28.3239 13.7387 28.2736C12.6387 28.2233 11.8872 28.0486 11.2299 27.7932C10.54 27.5337 9.91544 27.1269 9.39908 26.6009C8.87338 26.0848 8.46661 25.46 8.20706 24.7703C7.95163 24.1131 7.77667 23.3616 7.72668 22.2616C7.67587 21.1591 7.66406 20.807 7.66406 18C7.66406 15.193 7.67587 14.8409 7.72641 13.7387C7.7764 12.6384 7.95108 11.8872 8.20651 11.2297C8.46606 10.54 8.87311 9.91516 9.39908 9.39908C9.91516 8.87311 10.54 8.46634 11.2297 8.20679C11.8872 7.95135 12.6384 7.77667 13.7387 7.72641C14.8409 7.67615 15.193 7.66406 18 7.66406C20.807 7.66406 21.1591 7.67615 22.2613 7.72668C23.3616 7.77667 24.1128 7.95135 24.7703 8.20651C25.46 8.46606 26.0848 8.87311 26.6012 9.39908C27.1269 9.91544 27.5339 10.54 27.7932 11.2297C28.0489 11.8872 28.2236 12.6384 28.2739 13.7387C28.3241 14.8409 28.3359 15.193 28.3359 18C28.3359 20.807 28.3241 21.1591 28.2736 22.2613Z" fill="#F4F4ED"/>
</svg>
