<svg width="115" height="115" viewBox="0 0 115 115" fill="none" xmlns="http://www.w3.org/2000/svg">
<path d="M18.2178 14.0705C18.2178 17.2589 21.0763 19.8527 24.5897 19.8527C28.1031 19.8527 30.9613 17.2589 30.9613 14.0705C30.9613 10.8821 28.1031 8.28833 24.5897 8.28833C21.0763 8.28833 18.2178 10.8821 18.2178 14.0705ZM26.7249 14.0705C26.7249 15.1334 25.7669 15.9979 24.5894 15.9979C23.412 15.9979 22.4543 15.1334 22.4543 14.0705C22.4543 13.0076 23.4123 12.1431 24.5897 12.1431C25.7672 12.1431 26.7249 13.0076 26.7249 14.0705Z" fill="#2C3344"/>
<path d="M89.2864 20.7208C92.1637 20.7208 94.505 17.9323 94.505 14.5045C94.505 11.0768 92.1639 8.28833 89.2864 8.28833H40.5156C37.6381 8.28833 35.297 11.0768 35.297 14.5045C35.297 17.9323 37.6381 20.7208 40.5156 20.7208H89.2864ZM38.7666 14.5045C38.7666 13.3619 39.5512 12.4325 40.5156 12.4325H89.2864C90.2508 12.4325 91.0353 13.3619 91.0353 14.5045C91.0353 15.6472 90.2508 16.5766 89.2864 16.5766H40.5156C39.5512 16.5766 38.7666 15.6472 38.7666 14.5045Z" fill="#2C3344"/>
<path d="M108.823 0H20.8887C19.9583 0 19.2041 0.869752 19.2041 1.94257C19.2041 3.01538 19.9583 3.88513 20.8887 3.88513H108.823C110.371 3.88513 111.631 5.3374 111.631 7.12275V23.8288H3.36914V7.12275C3.36914 5.3374 4.62853 3.88513 6.17676 3.88513H13.0273C13.9577 3.88513 14.7119 3.01538 14.7119 1.94257C14.7119 0.869752 13.9577 0 13.0273 0H6.17676C2.77078 0 0 3.19513 0 7.12275V107.877C0 111.805 2.77078 115 6.17676 115H108.823C112.229 115 115 111.805 115 107.877V95.3153C115 94.2425 114.246 93.3727 113.315 93.3727C112.385 93.3727 111.631 94.2425 111.631 95.3153V107.877C111.631 109.663 110.371 111.115 108.823 111.115H6.17676C4.62853 111.115 3.36914 109.663 3.36914 107.877V27.714H111.631V86.25C111.631 87.3228 112.385 88.1926 113.315 88.1926C114.246 88.1926 115 87.3228 115 86.25V7.12275C115 3.19513 112.229 0 108.823 0Z" fill="#2C3344"/>
<path d="M89.5469 47.8631H73.3072C72.1371 47.8631 71.1889 48.7261 71.1889 49.7905C71.1889 50.8549 72.1371 51.7179 73.3072 51.7179H89.5469C92.272 51.7179 94.4894 49.7003 94.4894 47.2206V36.9412C94.4894 34.4616 92.272 32.444 89.5469 32.444H23.4583C20.7332 32.444 18.5158 34.4616 18.5158 36.9412V47.2206C18.5158 49.7003 20.7332 51.7179 23.4583 51.7179H63.4221C64.5922 51.7179 65.5403 50.8549 65.5403 49.7905C65.5403 48.7261 64.5922 47.8631 63.4221 47.8631H23.4583C23.0691 47.8631 22.7523 47.5748 22.7523 47.2206V36.9412C22.7523 36.5871 23.0691 36.2988 23.4583 36.2988H89.5469C89.9363 36.2988 90.2529 36.5871 90.2529 36.9412V47.2206C90.2529 47.5748 89.9363 47.8631 89.5469 47.8631Z" fill="#2C3344"/>
<path d="M76.8564 56.2151C69.1478 56.2151 62.8762 61.9217 62.8762 68.9359C62.8762 75.95 69.1478 81.6567 76.8564 81.6567C84.5651 81.6567 90.8367 75.95 90.8367 68.9359C90.8367 61.9217 84.5651 56.2151 76.8564 56.2151ZM76.8564 77.8019C71.4838 77.8019 67.1126 73.8245 67.1126 68.9359C67.1126 64.0472 71.4838 60.0699 76.8564 60.0699C82.2291 60.0699 86.6003 64.0472 86.6003 68.9359C86.6003 73.8245 82.2291 77.8019 76.8564 77.8019Z" fill="#2C3344"/>
<path d="M37.5987 56.2151C29.8901 56.2151 23.6185 61.9217 23.6185 68.9359C23.6185 75.95 29.8901 81.6567 37.5987 81.6567C39.4461 81.6567 41.2418 81.3334 42.9366 80.696C44.0178 80.2892 44.5318 79.1624 44.085 78.1786C43.6379 77.1946 42.3995 76.7269 41.3183 77.1337C40.1392 77.577 38.8877 77.8019 37.5987 77.8019C32.2261 77.8019 27.8549 73.8245 27.8549 68.9359C27.8549 64.0472 32.2261 60.0699 37.5987 60.0699C42.9714 60.0699 47.3425 64.0472 47.3425 68.9359C47.3425 69.8734 47.183 70.7957 46.8683 71.6771C46.5071 72.6897 47.116 73.7767 48.2288 74.1056C49.3419 74.4346 50.5365 73.88 50.8978 72.8677C51.3499 71.6011 51.579 70.2781 51.579 68.9359C51.579 61.9217 45.3074 56.2151 37.5987 56.2151Z" fill="#2C3344"/>
<path d="M48.8959 85.5115H29.1258C27.956 85.5115 27.0076 86.3744 27.0076 87.4389C27.0076 88.5033 27.956 89.3663 29.1258 89.3663H48.8959C50.0657 89.3663 51.0141 88.5033 51.0141 87.4389C51.0141 86.3744 50.0657 85.5115 48.8959 85.5115Z" fill="#2C3344"/>
<path d="M48.8959 93.2209H26.3015C25.1317 93.2209 24.1833 94.0839 24.1833 95.1483C24.1833 96.2128 25.1317 97.0757 26.3015 97.0757H48.8959C50.0657 97.0757 51.0141 96.2128 51.0141 95.1483C51.0141 94.0839 50.0657 93.2209 48.8959 93.2209Z" fill="#2C3344"/>
<path d="M48.8959 100.931H26.3015C25.1317 100.931 24.1833 101.793 24.1833 102.858C24.1833 103.922 25.1317 104.785 26.3015 104.785H48.8959C50.0657 104.785 51.0141 103.922 51.0141 102.858C51.0141 101.793 50.0657 100.931 48.8959 100.931Z" fill="#2C3344"/>
<path d="M88.1536 85.5115H68.3835C67.2137 85.5115 66.2653 86.3744 66.2653 87.4389C66.2653 88.5033 67.2137 89.3663 68.3835 89.3663H88.1536C89.3237 89.3663 90.2718 88.5033 90.2718 87.4389C90.2718 86.3744 89.3237 85.5115 88.1536 85.5115Z" fill="#2C3344"/>
<path d="M88.1536 93.2209H65.5593C64.3894 93.2209 63.441 94.0839 63.441 95.1483C63.441 96.2128 64.3894 97.0757 65.5593 97.0757H88.1536C89.3237 97.0757 90.2718 96.2128 90.2718 95.1483C90.2718 94.0839 89.3237 93.2209 88.1536 93.2209Z" fill="#2C3344"/>
<path d="M88.1536 100.931H65.5593C64.3894 100.931 63.441 101.793 63.441 102.858C63.441 103.922 64.3894 104.785 65.5593 104.785H88.1536C89.3237 104.785 90.2718 103.922 90.2718 102.858C90.2718 101.793 89.3237 100.931 88.1536 100.931Z" fill="#2C3344"/>
</svg>
